<?xml version="1.0" encoding="utf-8"?>
<!-- Generator: Adobe Illustrator 26.1.0, SVG Export Plug-In . SVG Version: 6.00 Build 0)  -->
<svg version="1.1" id="a" xmlns="http://www.w3.org/2000/svg" xmlns:xlink="http://www.w3.org/1999/xlink" x="0px" y="0px"
	 width="512px" height="422.9px" viewBox="0 0 512 422.9" style="enable-background:new 0 0 512 422.9;" xml:space="preserve">
<style type="text/css">
	.st0{fill:#CD6799;}
	.st1{fill:#231F20;}
	.st2{fill:#70CFF0;}
</style>
<path class="st0" d="M466.3,313.2c-8.8,0-16.4,2.2-22.8,5.3c-2.3-4.7-4.7-8.7-5.1-11.8c-0.5-3.6-1-5.7-0.4-9.9
	c0.6-4.2,3-10.2,3-10.7s-0.5-2.6-5.6-2.6c-5.1,0-9.4,1-9.9,2.3c-0.5,1.3-1.5,4.3-2.1,7.5c-0.9,4.6-10.1,21-15.4,29.5
	c-1.7-3.3-3.2-6.3-3.5-8.6c-0.5-3.6-1-5.7-0.4-9.9c0.6-4.2,3-10.2,3-10.7c0-0.4-0.5-2.6-5.6-2.6c-5.1,0-9.4,1-9.9,2.3
	c-0.5,1.3-1.1,4.5-2.1,7.5s-13.3,30.3-16.5,37.4c-1.6,3.6-3.1,6.5-4.1,8.5l0,0c0,0-0.1,0.1-0.2,0.4c-0.9,1.7-1.4,2.6-1.4,2.6l0,0
	c-0.7,1.2-1.4,2.4-1.8,2.4c-0.3,0-0.8-3.3,0.1-7.8c1.8-9.5,6.2-24.3,6.2-24.8c0-0.3,0.8-2.8-2.9-4.2c-3.6-1.3-4.8,0.9-5.2,0.9
	c-0.3,0-0.6,0.8-0.6,0.8s4-16.6-7.6-16.6c-7.2,0-17.3,7.9-22.2,15.1c-3.1,1.7-9.8,5.3-16.9,9.2c-2.7,1.5-5.5,3-8.1,4.5
	c-0.2-0.2-0.4-0.4-0.5-0.6c-14-15-40-25.6-38.9-45.7c0.4-7.3,2.9-26.6,49.9-50c38.4-19.2,69.2-13.9,74.5-2.2
	c7.6,16.7-16.4,47.7-56.4,52.2c-15.2,1.7-23.2-4.2-25.2-6.4c-2.1-2.3-2.4-2.4-3.2-2c-1.3,0.7-0.5,2.7,0,4c1.2,3.1,6.1,8.6,14.4,11.3
	c7.3,2.4,25.2,3.7,46.8-4.6c24.2-9.4,43.1-35.4,37.5-57.1c-5.6-22.1-42.3-29.4-77-17.1c-20.7,7.3-43,18.9-59.1,33.9
	c-19.1,17.9-22.2,33.5-20.9,40c4.5,23.1,36.3,38.2,49.1,49.3c-0.6,0.3-1.2,0.7-1.8,1c-6.4,3.2-30.7,15.9-36.8,29.3
	c-6.9,15.2,1.1,26.2,6.4,27.6c16.4,4.6,33.2-3.6,42.2-17.1c9-13.5,7.9-31,3.8-39c-0.1-0.1-0.1-0.2-0.2-0.3c1.7-1,3.3-2,5-3
	c3.3-1.9,6.4-3.7,9.2-5.2c-1.6,4.3-2.7,9.3-3.3,16.7c-0.7,8.6,2.8,19.8,7.5,24.2c2,1.9,4.5,2,6.1,2c5.4,0,7.9-4.5,10.6-9.8
	c3.3-6.5,6.3-14.1,6.3-14.1s-3.7,20.5,6.4,20.5c3.7,0,7.4-4.8,9-7.2l0,0c0,0,0.1-0.2,0.3-0.5c0.4-0.6,0.6-1,0.6-1s0,0,0-0.1
	c1.5-2.6,4.8-8.4,9.7-18.1c6.3-12.5,12.4-28.1,12.4-28.1s0.6,3.8,2.4,10.1c1.1,3.7,3.4,7.8,5.2,11.8c-1.5,2-2.4,3.2-2.4,3.2
	s0,0,0,0.1c-1.2,1.6-2.5,3.2-3.9,4.9c-5,6-11,12.8-11.8,14.8c-0.9,2.3-0.7,4,1.1,5.4c1.3,1,3.7,1.2,6.2,1c4.5-0.3,7.7-1.4,9.2-2.1
	c2.4-0.9,5.3-2.2,7.9-4.2c4.9-3.6,7.9-8.8,7.6-15.6c-0.2-3.8-1.4-7.5-2.9-11c0.4-0.6,0.9-1.3,1.3-1.9c7.7-11.3,13.8-23.8,13.8-23.8
	s0.6,3.8,2.4,10.1c0.9,3.2,2.8,6.7,4.5,10.1c-7.3,5.9-11.8,12.8-13.4,17.3c-2.9,8.3-0.6,12.1,3.6,13c1.9,0.4,4.7-0.5,6.7-1.4
	c2.6-0.8,5.6-2.3,8.5-4.4c4.9-3.6,9.6-8.7,9.4-15.5c-0.1-3.1-1-6.2-2.1-9.2c6.2-2.6,14.2-4,24.4-2.8c21.9,2.6,26.1,16.2,25.3,21.9
	c-0.8,5.7-5.4,8.8-6.9,9.8c-1.5,0.9-2,1.3-1.9,2c0.2,1,0.9,1,2.2,0.8c1.8-0.3,11.5-4.6,11.9-15.2C501.8,327.8,489,313.1,466.3,313.2
	L466.3,313.2z M297.9,370c-7.2,7.9-17.3,10.9-21.7,8.4c-4.7-2.7-2.8-14.3,6.1-22.7c5.4-5.1,12.4-9.8,17-12.7
	c1.1-0.6,2.6-1.6,4.5-2.7c0.3-0.2,0.5-0.3,0.5-0.3l0,0c0.4-0.2,0.7-0.4,1.1-0.7C308.6,351.2,305.5,361.7,297.9,370L297.9,370z
	 M350.6,334.2c-2.5,6.1-7.8,21.9-11,21c-2.8-0.7-4.4-12.7-0.6-24.4c2-5.9,6.1-13,8.6-15.7c4-4.4,8.3-5.9,9.4-4.1
	C358.3,313.2,352.2,330.3,350.6,334.2L350.6,334.2z M394.1,354.9c-1.1,0.6-2,0.9-2.5,0.6c-0.3-0.2,0.4-0.9,0.4-0.9s5.4-5.9,7.6-8.5
	c1.2-1.6,2.7-3.4,4.3-5.5c0,0.2,0,0.4,0,0.6C404,348.3,397.2,353,394.1,354.9L394.1,354.9z M427.7,347.3c-0.8-0.6-0.7-2.4,2-8.1
	c1-2.2,3.4-6,7.5-9.6c0.5,1.5,0.8,2.9,0.8,4.2C437.8,342.6,431.5,345.9,427.7,347.3z"/>
<g>
	<path class="st1" d="M14.9,251.4h52.7v15.5H14.9V251.4z M14.9,222.6h52.7v15.5H14.9V222.6L14.9,222.6z M109.5,280H14.9v15.5h91
		c10,0,33.2,0.2,41.8,14.2V301C143.6,287.3,131.2,280,109.5,280L109.5,280z M109.7,308.7H14.9v15.5h91c22.1,0,36.1,0.9,41.8,4v-6.9
		C143.3,310.5,124.7,308.7,109.7,308.7z M109.5,381.8H14.9v-15.5h91c10,0,33.2-0.2,41.8-14.2v8.6
		C143.6,374.5,131.2,381.8,109.5,381.8L109.5,381.8z M109.7,353H14.9v-15.5h91c22.1,0,36.1-0.9,41.8-4v6.9
		C143.3,351.2,124.7,353,109.7,353L109.7,353z M170.8,408.6h69.5v-9.5h-67.5c-6,0-20.1-0.2-25.2-8.4v5.3
		C150,404.1,157.5,408.6,170.8,408.6L170.8,408.6z M170.6,391.1h69.5v-9.5h-67.3c-13.5,0-21.9-0.4-25.2-2.4v4.2
		C150.2,390,161.5,391.1,170.6,391.1L170.6,391.1z"/>
</g>
<g>
	<path class="st2" d="M306.5,111.7c-2.9-4-6.3-7.3-10.2-10.3c-11.3-8.6-24.1-14.2-37.6-18.4c-2-0.6-2.7-1.4-2.2-3.5
		c2.7-12.5,4.4-25.1,3.2-37.9c-0.7-7.2-2.1-14.2-5.7-20.6c-3.7-6.5-9.1-10.7-16.7-11.9c-7.4-1.2-14.3,0.6-21,3.3
		c-13.4,5.3-24.7,14-35.3,23.5c-1.4,1.3-2.2,1.4-3.7,0.1c-7.6-6.8-15.6-13.1-24.4-18.1c-9.6-5.4-19.4-9.8-30.8-8.7
		c-6.7,0.6-12,3.6-15.9,8.9c-5.8,7.8-7.3,16.9-7.9,26.2c-0.7,12,0.9,23.8,3.4,35.5c0.4,1.8,0,2.6-1.7,3.1
		c-6.1,1.8-12.1,4.2-17.9,6.8c-10.8,4.9-21,10.8-28.7,20.1c-6.7,8.1-8.9,17.1-4.2,27c2.7,5.6,7,10,11.8,13.9
		c11.5,9.2,24.7,14.9,38.6,19.3c2.5,0.8,2.7,1.9,2.2,4c-2.7,12.4-4.2,24.9-3.1,37.6c0.6,6.6,1.8,13.2,5,19.1
		c4,7.6,9.9,12.5,18.9,13.4c6.7,0.6,13-0.9,19.2-3.3c13.7-5.4,25.2-14.1,36-23.8c1.1-1,1.7-1.6,3.2-0.2c7.8,7.2,16.2,13.7,25.5,18.9
		c8.3,4.6,17,8.3,22.6,8.4c14.2,0.2,21.4-4.4,26-13.3c3.3-6.4,4.7-13.2,5.1-20.2c0.8-12.6-0.5-25.1-3.4-37.4c-0.4-1.7,0-2.4,1.6-2.9
		c5.2-1.5,10.2-3.4,15.2-5.6c11.4-5,22.3-11,30.7-20.5C312.8,134.5,314.5,122.6,306.5,111.7L306.5,111.7z M188.6,45.1
		c10.4-9.5,21.5-18,35-22.7c3.6-1.3,7.4-2.1,11.3-1.6c4.9,0.7,7.7,3.8,9.5,7.9c2.9,6.4,3.5,13.3,3.4,20.3c0,0.4,0,0.9,0,1.3
		c0.3,8.8-1.2,17.5-2.8,26.1c-0.3,1.6-0.7,2.5-2.7,2c-9.8-2.3-19.7-4.1-29.7-5.1c-1.7-0.2-3-1-4.2-2.5c-6-8.2-12.5-16-19.4-23.4
		C188.4,46.8,187.3,46.3,188.6,45.1L188.6,45.1z M117.2,161.2c2-6.6,4.1-13.1,6.9-19.9c4.6,8.9,9.4,17,14.7,25.3
		c-7.3-0.9-13.9-2.4-20.5-3.8C117.5,162.7,116.8,162.4,117.2,161.2L117.2,161.2z M117.1,92.1c-0.3-0.8-0.5-1.7,0.7-1.9
		c6.8-1.4,13.6-2.9,21-3.8c-5.3,8.4-10,16.6-14.6,25.3c-2.1-4-3.2-8-4.6-12C118.7,97.2,117.9,94.7,117.1,92.1L117.1,92.1z
		 M131.1,128.3c-0.5-1.1-0.5-1.9,0-3c6.3-13.6,13.9-26.6,22.4-39c0.9-1.3,1.9-1.9,3.5-2c7.4-0.4,14.7-0.8,22.3-0.6
		c7.3-0.3,14.7,0.2,22.2,0.6c1.5,0.1,2.2,0.7,3,1.9c8.5,12.3,16,25.2,22.4,38.6c0.6,1.2,0.6,2.1,0.1,3.3c-5,10.7-10.8,20.9-17,30.9
		c-1.6,2.6-3.4,5.1-5,7.7c-1,1.6-2.4,2.3-4.2,2.4c-11.6,0.8-23.2,0.8-34.8,0.5c-3-0.1-6.1-0.5-9.1-0.5c-1.4,0-2.3-0.6-3.1-1.8
		C145.2,154.7,137.7,141.8,131.1,128.3L131.1,128.3z M233.9,141c2.6,5.8,4.4,11.2,6.1,16.7c1.6,4.9,1.4,5-3.7,5.9
		c-5.4,1-10.9,2.1-17.2,3.3C224.6,158.2,229.5,150.1,233.9,141L233.9,141z M240.9,92c-1.9,6.5-4.2,13-6.9,19.7
		c-4.5-8.8-9.4-16.9-14.6-25.2c2.7-0.1,4.9,0.5,7.2,0.9c4.3,0.8,8.6,1.8,12.9,2.6C240.6,90.3,241.3,90.6,240.9,92L240.9,92z
		 M177.8,55.6c0.6-0.6,1.1-1.1,1.9-0.2c4.9,5,9.4,10.4,13.6,16.1c-9.6-0.4-19.1-0.5-28.9-0.2c2.6-3.2,5.2-6.5,7.9-9.6
		C174.1,59.6,176,57.6,177.8,55.6L177.8,55.6z M112.6,31.2c3-8.7,8.5-11.8,17.6-9.8c10.9,2.5,20,8.3,28.7,14.9
		c3.5,2.6,6.8,5.6,10.2,8.4c1.2,1,1.2,1.6,0.1,2.7c-7,7.2-13.4,15-19.3,23.2c-1.3,1.7-2.7,2.5-4.6,2.7c-10,1-19.9,2.7-29.7,5.1
		c-1.7,0.4-2.1-0.2-2.4-1.6c-1.8-9-3.1-18-3.3-27.6C110.1,43.5,110.5,37.2,112.6,31.2L112.6,31.2z M106,156.8
		c-0.6,2.1-1.4,2.5-3.4,1.7c-11.6-4.1-22.9-8.7-32.8-16.1c-3.5-2.7-6.8-5.6-9.1-9.4c-1.2-2-2.2-4.1-2.2-6.6c0.2-4,2.1-7.2,4.7-10
		c7-7.6,15.8-12.4,25-16.5c4.7-2.2,9.7-3.8,14.6-5.5c1.5-0.5,2.2-0.4,2.7,1.3c3.1,10,6.6,19.9,11,29.5c0.5,1.1,0.3,2-0.1,3.1
		C112.4,137.6,108.7,147,106,156.8L106,156.8z M169.5,208c-10.7,9.6-21.9,18.4-35.8,22.9c-2.2,0.7-4.5,1.1-6.9,1.2
		c-8.4,0.6-11.4-3.6-13.6-9.3c-2.6-6.6-3-13.4-2.8-20.3c-0.3-8.8,1.2-17.4,2.8-26c0.3-1.8,1-2.4,3.1-1.9c9.9,2.4,19.8,4.1,29.9,5
		c1.2,0.1,2.1,0.6,2.7,1.5c6.3,8.6,13.2,16.8,20.5,24.6C170.2,206.7,170.4,207.2,169.5,208L169.5,208z M180,197.5
		c-0.8,0.8-1.4,0.4-2-0.2c-4.6-5-9.2-10-13.5-15.8h29.3C189.3,187.3,184.9,192.6,180,197.5L180,197.5z M244.4,224.7
		c-2.9,6.1-7.7,8.3-14.4,7.2c-9.7-1.7-17.9-6.4-25.8-11.7c-5.4-3.6-10.3-7.8-15.2-12.1c-1.1-1-0.9-1.4-0.1-2.3
		c7.1-7.7,13.9-15.5,19.9-24.1c1.8-2.6,4.5-2,6.8-2.3c8.9-1.2,17.8-2.7,26.5-4.8c1.9-0.5,2.6,0.1,2.9,1.9c1.9,8.7,3,17.5,3.3,26.6
		C248,210.3,247.7,217.8,244.4,224.7z M294.1,137.4c-4.1,4.5-9.2,7.7-14.4,10.7c-7.7,4.4-15.9,7.6-24.2,10.4
		c-1.5,0.5-2.4,0.5-2.9-1.3c-3-9.8-6.5-19.4-10.7-28.8c-0.6-1.3-0.8-2.4-0.1-3.8c4.2-9.4,7.6-19.2,10.7-29c0.3-1,0.5-2,1.9-1.5
		c14.7,5.1,29.1,10.6,40.3,22.1c2.8,2.9,4.8,6.3,5.1,10C299.5,131.1,296.9,134.4,294.1,137.4L294.1,137.4z"/>
	<path class="st2" d="M179.1,151.1c13.4,0,24.7-10.6,24.7-24.7c0-14.5-12-24.9-24.7-24.5c-13.7,0-24.7,10.9-24.8,24.6
		C154.2,139.9,165.5,151.1,179.1,151.1z"/>
</g>
</svg>
