<?xml version="1.0" encoding="utf-8"?>
<!-- Generator: Adobe Illustrator 26.1.0, SVG Export Plug-In . SVG Version: 6.00 Build 0)  -->
<svg version="1.1" id="a" xmlns="http://www.w3.org/2000/svg" xmlns:xlink="http://www.w3.org/1999/xlink" x="0px" y="0px"
	 width="437px" height="396px" viewBox="0 0 437 396" style="enable-background:new 0 0 437 396;" xml:space="preserve">
<style type="text/css">
	.st0{fill:#CD6799;}
	.st1{fill:#231F20;}
	.st2{fill:#70CFF0;}
</style>
<path class="st0" d="M190.4,316.5c-7.2,0-13.5,1.8-18.8,4.4c-1.9-3.9-3.9-7.2-4.2-9.7c-0.4-3-0.8-4.7-0.3-8.1s2.5-8.4,2.5-8.8
	c0-0.4-0.4-2.1-4.6-2.1s-7.7,0.8-8.1,1.9c-0.4,1.1-1.2,3.5-1.7,6.2c-0.7,3.8-8.3,17.3-12.7,24.3c-1.4-2.7-2.6-5.2-2.9-7.1
	c-0.4-3-0.8-4.7-0.3-8.1c0.5-3.5,2.5-8.4,2.5-8.8c0-0.3-0.4-2.1-4.6-2.1s-7.7,0.8-8.1,1.9c-0.4,1.1-0.9,3.7-1.7,6.2
	s-10.9,24.9-13.6,30.8c-1.3,3-2.6,5.3-3.4,7l0,0c0,0-0.1,0.1-0.2,0.3c-0.7,1.4-1.2,2.1-1.2,2.1l0,0c-0.6,1-1.2,2-1.5,2
	c-0.2,0-0.7-2.7,0.1-6.4c1.5-7.8,5.1-20,5.1-20.4c0-0.2,0.7-2.3-2.4-3.5c-3-1.1-4,0.7-4.3,0.7c-0.2,0-0.5,0.7-0.5,0.7
	s3.3-13.7-6.3-13.7c-5.9,0-14.2,6.5-18.3,12.4c-2.6,1.4-8.1,4.4-13.9,7.6c-2.2,1.2-4.5,2.5-6.7,3.7c-0.2-0.2-0.3-0.3-0.4-0.5
	c-11.5-12.3-32.9-21.1-32-37.6c0.3-6,2.4-21.9,41.1-41.2c31.6-15.8,57-11.4,61.3-1.8c6.3,13.7-13.5,39.3-46.4,43
	c-12.5,1.4-19.1-3.5-20.7-5.3c-1.7-1.9-2-2-2.6-1.6c-1.1,0.6-0.4,2.2,0,3.3c1,2.6,5,7.1,11.9,9.3c6,2,20.7,3,38.5-3.8
	c19.9-7.7,35.5-29.1,30.9-47c-4.6-18.2-34.8-24.2-63.4-14.1c-17,6-35.4,15.6-48.6,27.9C14,275,11.5,287.9,12.6,293.2
	c3.7,19,29.9,31.4,40.4,40.6c-0.5,0.2-1,0.6-1.5,0.8c-5.3,2.6-25.3,13.1-30.3,24.1c-5.7,12.5,0.9,21.6,5.3,22.7
	c13.5,3.8,27.3-3,34.7-14.1c7.4-11.1,6.5-25.5,3.1-32.1c-0.1-0.1-0.1-0.2-0.2-0.2c1.4-0.8,2.7-1.6,4.1-2.5c2.7-1.6,5.3-3,7.6-4.3
	c-1.3,3.5-2.2,7.7-2.7,13.7c-0.6,7.1,2.3,16.3,6.2,19.9c1.6,1.6,3.7,1.6,5,1.6c4.4,0,6.5-3.7,8.7-8.1c2.7-5.3,5.2-11.6,5.2-11.6
	s-3,16.9,5.3,16.9c3,0,6.1-4,7.4-5.9l0,0c0,0,0.1-0.2,0.2-0.4c0.3-0.5,0.5-0.8,0.5-0.8s0,0,0-0.1c1.2-2.1,4-6.9,8-14.9
	c5.2-10.3,10.2-23.1,10.2-23.1s0.5,3.1,2,8.3c0.9,3,2.8,6.4,4.3,9.7c-1.2,1.6-2,2.6-2,2.6s0,0,0,0.1c-1,1.3-2.1,2.6-3.2,4
	c-4.1,4.9-9.1,10.5-9.7,12.2c-0.7,1.9-0.6,3.3,0.9,4.4c1.1,0.8,3,1,5.1,0.8c3.7-0.2,6.3-1.2,7.6-1.7c2-0.7,4.4-1.8,6.5-3.5
	c4-3,6.5-7.2,6.3-12.8c-0.2-3.1-1.2-6.2-2.4-9.1c0.3-0.5,0.7-1.1,1.1-1.6c6.3-9.3,11.4-19.6,11.4-19.6s0.5,3.1,2,8.3
	c0.7,2.6,2.3,5.5,3.7,8.3c-6,4.9-9.7,10.5-11,14.2c-2.4,6.8-0.5,10,3,10.7c1.6,0.3,3.9-0.4,5.5-1.2c2.1-0.7,4.6-1.9,7-3.6
	c4-3,7.9-7.2,7.7-12.8c-0.1-2.6-0.8-5.1-1.7-7.6c5.1-2.1,11.7-3.3,20.1-2.3c18,2.1,21.5,13.3,20.8,18c-0.7,4.7-4.4,7.2-5.7,8.1
	c-1.2,0.7-1.6,1.1-1.6,1.6c0.2,0.8,0.7,0.8,1.8,0.7c1.5-0.2,9.5-3.8,9.8-12.5C219.6,328.5,209.1,316.4,190.4,316.5L190.4,316.5z
	 M51.8,363.3c-5.9,6.5-14.2,9-17.9,6.9c-3.9-2.2-2.3-11.8,5-18.7c4.4-4.2,10.2-8.1,14-10.5c0.9-0.5,2.1-1.3,3.7-2.2
	c0.2-0.2,0.4-0.2,0.4-0.2l0,0c0.3-0.2,0.6-0.3,0.9-0.6C60.6,347.8,58.1,356.4,51.8,363.3L51.8,363.3z M95.2,333.8
	c-2.1,5-6.4,18-9.1,17.3c-2.3-0.6-3.6-10.5-0.5-20.1c1.6-4.9,5-10.7,7.1-12.9c3.3-3.6,6.8-4.9,7.7-3.4
	C101.5,316.5,96.5,330.6,95.2,333.8L95.2,333.8z M131,350.8c-0.9,0.5-1.6,0.7-2.1,0.5c-0.2-0.2,0.3-0.7,0.3-0.7s4.4-4.9,6.3-7
	c1-1.3,2.2-2.8,3.5-4.5c0,0.2,0,0.3,0,0.5C139.1,345.4,133.5,349.3,131,350.8L131,350.8z M158.6,344.6c-0.7-0.5-0.6-2,1.6-6.7
	c0.8-1.8,2.8-4.9,6.2-7.9c0.4,1.2,0.7,2.4,0.7,3.5C167,340.7,161.8,343.4,158.6,344.6z"/>
<g>
	<path class="st1" d="M245.6,252.2H289v12.8h-43.4V252.2z M245.6,228.5H289v12.8h-43.4V228.5L245.6,228.5z M323.5,275.7h-77.9v12.8
		h74.9c8.2,0,27.3,0.2,34.4,11.7V293C351.5,281.7,341.3,275.7,323.5,275.7L323.5,275.7z M323.6,299.3h-78v12.8h74.9
		c18.2,0,29.7,0.7,34.4,3.3v-5.7C351.3,300.8,336,299.3,323.6,299.3z M323.5,359.5h-77.9v-12.8h74.9c8.2,0,27.3-0.2,34.4-11.7v7.1
		C351.5,353.5,341.3,359.5,323.5,359.5L323.5,359.5z M323.6,335.8h-78V323h74.9c18.2,0,29.7-0.7,34.4-3.3v5.7
		C351.3,334.3,336,335.8,323.6,335.8L323.6,335.8z M373.9,381.5h57.2v-7.8h-55.6c-4.9,0-16.5-0.2-20.7-6.9v4.4
		C356.8,377.8,363,381.5,373.9,381.5L373.9,381.5z M373.8,367.1H431v-7.8h-55.4c-11.1,0-18-0.3-20.7-2v3.5
		C357,366.2,366.3,367.1,373.8,367.1L373.8,367.1z"/>
</g>
<g>
	<path class="st2" d="M314.9,96.8c-2.4-3.2-5.1-5.9-8.3-8.4c-9.2-7-19.6-11.5-30.5-14.9c-1.6-0.5-2.2-1.1-1.8-2.8
		c2.2-10.1,3.6-20.4,2.6-30.8c-0.6-5.8-1.7-11.5-4.6-16.7c-3-5.3-7.4-8.7-13.6-9.7c-6-1-11.6,0.5-17.1,2.7
		c-10.9,4.3-20.1,11.4-28.7,19.1c-1.1,1.1-1.8,1.1-3,0.1c-6.2-5.5-12.7-10.6-19.8-14.7c-7.8-4.4-15.8-8-25-7.1
		c-5.4,0.5-9.7,2.9-12.9,7.2c-4.7,6.3-5.9,13.7-6.4,21.3c-0.6,9.7,0.7,19.3,2.8,28.8c0.3,1.5,0,2.1-1.4,2.5c-5,1.5-9.8,3.4-14.5,5.5
		c-8.8,4-17.1,8.8-23.3,16.3c-5.4,6.6-7.2,13.9-3.4,21.9c2.2,4.5,5.7,8.1,9.6,11.3c9.3,7.5,20.1,12.1,31.3,15.7
		c2,0.6,2.2,1.5,1.8,3.2c-2.2,10.1-3.4,20.2-2.5,30.5c0.5,5.4,1.5,10.7,4.1,15.5c3.2,6.2,8,10.1,15.3,10.9
		c5.4,0.5,10.6-0.7,15.6-2.7c11.1-4.4,20.5-11.4,29.2-19.3c0.9-0.8,1.4-1.3,2.6-0.2c6.3,5.8,13.2,11.1,20.7,15.3
		c6.7,3.7,13.8,6.7,18.3,6.8c11.5,0.2,17.4-3.6,21.1-10.8c2.7-5.2,3.8-10.7,4.1-16.4c0.6-10.2-0.4-20.4-2.8-30.4
		c-0.3-1.4,0-1.9,1.3-2.4c4.2-1.2,8.3-2.8,12.3-4.5c9.3-4.1,18.1-8.9,24.9-16.6C320,115.3,321.4,105.6,314.9,96.8L314.9,96.8z
		 M219.2,42.7c8.4-7.7,17.5-14.6,28.4-18.4c2.9-1.1,6-1.7,9.2-1.3c4,0.6,6.3,3.1,7.7,6.4c2.4,5.2,2.8,10.8,2.8,16.5
		c0,0.3,0,0.7,0,1.1c0.2,7.1-1,14.2-2.3,21.2c-0.2,1.3-0.6,2-2.2,1.6c-8-1.9-16-3.3-24.1-4.1c-1.4-0.2-2.4-0.8-3.4-2
		c-4.9-6.7-10.1-13-15.8-19C219,44.1,218.1,43.7,219.2,42.7L219.2,42.7z M161.2,137c1.6-5.4,3.3-10.6,5.6-16.2
		c3.7,7.2,7.6,13.8,11.9,20.5c-5.9-0.7-11.3-1.9-16.6-3.1C161.4,138.2,160.9,138,161.2,137L161.2,137z M161.1,80.9
		c-0.2-0.6-0.4-1.4,0.6-1.5c5.5-1.1,11-2.4,17.1-3.1c-4.3,6.8-8.1,13.5-11.9,20.5c-1.7-3.2-2.6-6.5-3.7-9.7
		C162.4,85,161.8,83,161.1,80.9L161.1,80.9z M172.5,110.3c-0.4-0.9-0.4-1.5,0-2.4c5.1-11,11.3-21.6,18.2-31.7
		c0.7-1.1,1.5-1.5,2.8-1.6c6-0.3,11.9-0.6,18.1-0.5c5.9-0.2,11.9,0.2,18,0.5c1.2,0.1,1.8,0.6,2.4,1.5c6.9,10,13,20.5,18.2,31.3
		c0.5,1,0.5,1.7,0.1,2.7c-4.1,8.7-8.8,17-13.8,25.1c-1.3,2.1-2.8,4.1-4.1,6.3c-0.8,1.3-1.9,1.9-3.4,1.9c-9.4,0.6-18.8,0.6-28.3,0.4
		c-2.4-0.1-5-0.4-7.4-0.4c-1.1,0-1.9-0.5-2.5-1.5C183.9,131.7,177.8,121.2,172.5,110.3L172.5,110.3z M255.9,120.6
		c2.1,4.7,3.6,9.1,5,13.6c1.3,4,1.1,4.1-3,4.8c-4.4,0.8-8.8,1.7-14,2.7C248.4,134.5,252.4,128,255.9,120.6L255.9,120.6z M261.6,80.8
		c-1.5,5.3-3.4,10.6-5.6,16c-3.7-7.1-7.6-13.7-11.9-20.5c2.2-0.1,4,0.4,5.8,0.7c3.5,0.6,7,1.5,10.5,2.1
		C261.4,79.4,261.9,79.7,261.6,80.8L261.6,80.8z M210.4,51.2c0.5-0.5,0.9-0.9,1.5-0.2c4,4.1,7.6,8.4,11,13.1
		c-7.8-0.3-15.5-0.4-23.5-0.2c2.1-2.6,4.2-5.3,6.4-7.8C207.4,54.5,208.9,52.9,210.4,51.2L210.4,51.2z M157.4,31.4
		c2.4-7.1,6.9-9.6,14.3-8c8.8,2,16.2,6.7,23.3,12.1c2.8,2.1,5.5,4.5,8.3,6.8c1,0.8,1,1.3,0.1,2.2c-5.7,5.8-10.9,12.2-15.7,18.8
		c-1.1,1.4-2.2,2-3.7,2.2c-8.1,0.8-16.2,2.2-24.1,4.1c-1.4,0.3-1.7-0.2-1.9-1.3c-1.5-7.3-2.5-14.6-2.7-22.4
		C155.4,41.4,155.7,36.3,157.4,31.4L157.4,31.4z M152.1,133.4c-0.5,1.7-1.1,2-2.8,1.4c-9.4-3.3-18.6-7.1-26.6-13.1
		c-2.8-2.2-5.5-4.5-7.4-7.6c-1-1.6-1.8-3.3-1.8-5.4c0.2-3.2,1.7-5.8,3.8-8.1c5.7-6.2,12.8-10.1,20.3-13.4c3.8-1.8,7.9-3.1,11.9-4.5
		c1.2-0.4,1.8-0.3,2.2,1.1c2.5,8.1,5.4,16.2,8.9,24c0.4,0.9,0.2,1.6-0.1,2.5C157.3,117.8,154.3,125.5,152.1,133.4L152.1,133.4z
		 M203.6,175c-8.7,7.8-17.8,14.9-29.1,18.6c-1.8,0.6-3.7,0.9-5.6,1c-6.8,0.5-9.3-2.9-11-7.6c-2.1-5.4-2.4-10.9-2.3-16.5
		c-0.2-7.1,1-14.1,2.3-21.1c0.2-1.5,0.8-1.9,2.5-1.5c8,1.9,16.1,3.3,24.3,4.1c1,0.1,1.7,0.5,2.2,1.2c5.1,7,10.7,13.6,16.6,20
		C204.2,173.9,204.4,174.3,203.6,175L203.6,175z M212.2,166.5c-0.6,0.6-1.1,0.3-1.6-0.2c-3.7-4.1-7.5-8.1-11-12.8h23.8
		C219.7,158.2,216.1,162.5,212.2,166.5L212.2,166.5z M264.5,188.5c-2.4,5-6.3,6.7-11.7,5.8c-7.9-1.4-14.5-5.2-20.9-9.5
		c-4.4-2.9-8.4-6.3-12.3-9.8c-0.9-0.8-0.7-1.1-0.1-1.9c5.8-6.3,11.3-12.6,16.2-19.6c1.5-2.1,3.7-1.6,5.5-1.9
		c7.2-1,14.5-2.2,21.5-3.9c1.5-0.4,2.1,0.1,2.4,1.5c1.5,7.1,2.4,14.2,2.7,21.6C267.4,176.8,267.1,182.9,264.5,188.5z M304.8,117.7
		c-3.3,3.7-7.5,6.3-11.7,8.7c-6.3,3.6-12.9,6.2-19.6,8.4c-1.2,0.4-1.9,0.4-2.4-1.1c-2.4-8-5.3-15.8-8.7-23.4
		c-0.5-1.1-0.6-1.9-0.1-3.1c3.4-7.6,6.2-15.6,8.7-23.5c0.2-0.8,0.4-1.6,1.5-1.2c11.9,4.1,23.6,8.6,32.7,17.9
		c2.3,2.4,3.9,5.1,4.1,8.1C309.2,112.5,307.1,115.2,304.8,117.7L304.8,117.7z"/>
	<path class="st2" d="M211.4,128.8c10.9,0,20.1-8.6,20.1-20.1c0-11.8-9.7-20.2-20.1-19.9c-11.1,0-20.1,8.8-20.1,20
		C191.2,119.7,200.4,128.8,211.4,128.8z"/>
</g>
</svg>
