<?xml version="1.0" encoding="UTF-8"?><svg id="a" xmlns="http://www.w3.org/2000/svg" width="512" height="512" viewBox="0 0 512 512"><defs><style>.b{fill:#cd6799;}</style></defs><path class="b" d="M436.775,222.834c-17.566,.093-32.782,4.31-45.536,10.597-4.665-9.31-9.385-17.5-10.178-23.59-.926-7.109-1.999-11.35-.881-19.82,1.118-8.469,6.018-20.463,5.946-21.361s-1.099-5.212-11.231-5.285c-10.133-.073-18.799,1.949-19.819,4.625-1.021,2.676-2.971,8.696-4.185,14.975-1.775,9.188-20.23,41.954-30.709,59.096-3.426-6.69-6.341-12.59-6.948-17.255-.926-7.109-1.999-11.35-.881-19.82,1.118-8.469,6.018-20.463,5.946-21.361-.072-.898-1.099-5.212-11.231-5.285-10.133-.073-18.799,1.949-19.819,4.625-1.021,2.676-2.109,8.927-4.185,14.975-2.076,6.048-26.608,60.707-33.033,74.874-3.274,7.219-6.123,13.017-8.135,16.979l-.013-.022s-.123,.263-.337,.709c-1.722,3.371-2.746,5.237-2.746,5.237l.03,.07c-1.366,2.476-2.829,4.775-3.553,4.775-.507,0-1.521-6.591,.22-15.636,3.65-18.961,12.42-48.531,12.332-49.549-.045-.522,1.63-5.675-5.726-8.368-7.151-2.617-9.697,1.748-10.35,1.762-.632,.013-1.101,1.542-1.101,1.542,0,0,7.966-33.253-15.195-33.253-14.48,0-34.545,15.841-44.429,30.198-6.237,3.402-19.585,10.689-33.748,18.47-5.439,2.988-10.989,6.042-16.253,8.942-.358-.396-.714-.793-1.082-1.186-28.084-29.963-80.002-51.156-77.799-91.438,.801-14.644,5.891-53.205,99.758-99.978,76.893-38.316,138.449-27.772,149.087-4.405,15.196,33.384-32.899,95.432-112.752,104.383-30.425,3.41-46.445-8.381-50.43-12.772-4.194-4.623-4.82-4.832-6.386-3.964-2.551,1.414-.935,5.496,0,7.928,2.384,6.205,12.168,17.208,28.848,22.683,14.674,4.815,50.394,7.46,93.592-9.249,48.383-18.715,86.163-70.777,75.066-114.293C307.647,8.126,234.262-6.423,164.808,18.252c-41.335,14.685-86.083,37.733-118.256,67.827C8.296,121.86,2.196,153.004,4.709,166.017c8.932,46.238,72.662,76.347,98.181,98.663-1.259,.695-2.44,1.347-3.515,1.94-12.795,6.329-61.374,31.752-73.526,58.614-13.783,30.47,2.194,52.331,12.772,55.275,32.774,9.119,66.407-7.284,84.481-34.243,18.07-26.953,15.864-62.048,7.57-78.068-.103-.199-.217-.393-.323-.591,3.304-1.955,6.673-3.944,10.012-5.904,6.512-3.824,12.903-7.391,18.451-10.41-3.103,8.505-5.377,18.699-6.56,33.421-1.389,17.296,5.699,39.653,14.975,48.448,4.084,3.872,8.998,3.963,12.112,3.963,10.793,0,15.718-8.979,21.141-19.6,6.651-13.025,12.552-28.188,12.552-28.188,0,0-7.407,40.96,12.773,40.96,7.353,0,14.75-9.534,18.044-14.395l.014,.082s.191-.316,.566-.952c.764-1.168,1.196-1.91,1.196-1.91,0,0,.015-.077,.039-.211,2.956-5.132,9.51-16.832,19.341-36.125,12.701-24.928,24.884-56.156,24.884-56.156,0,0,1.134,7.634,4.845,20.26,2.184,7.428,6.823,15.64,10.483,23.515-2.946,4.088-4.757,6.436-4.757,6.436,0,0,.017,.043,.049,.122-2.355,3.125-4.995,6.498-7.756,9.787-10.024,11.94-21.964,25.574-23.564,29.509-1.884,4.636-1.438,8.048,2.202,10.79,2.659,2.005,7.393,2.315,12.333,1.982,9.008-.606,15.347-2.84,18.474-4.201,4.876-1.724,10.552-4.436,15.88-8.351,9.834-7.229,15.765-17.572,15.196-31.271-.315-7.55-2.723-15.032-5.769-22.097,.892-1.283,1.788-2.577,2.685-3.889,15.503-22.663,27.527-47.567,27.527-47.567,0,0,1.133,7.634,4.846,20.26,1.878,6.391,5.584,13.362,8.917,20.199-14.576,11.844-23.617,25.606-26.756,34.635-5.803,16.697-1.258,24.264,7.268,25.986,3.862,.78,9.316-.989,13.419-2.726,5.106-1.694,11.24-4.513,16.971-8.725,9.834-7.229,19.289-17.352,18.719-31.051-.261-6.237-1.952-12.427-4.246-18.373,12.356-5.147,28.354-8.009,48.73-5.63,43.714,5.105,52.289,32.399,50.65,43.823-1.64,11.424-10.808,17.704-13.875,19.6-3.065,1.896-4,2.554-3.743,3.964,.373,2.05,1.79,1.971,4.404,1.531,3.599-.608,22.954-9.292,23.783-30.379,1.052-26.771-24.597-56.177-70.029-55.935ZM99.834,336.428c-14.479,15.796-34.708,21.765-43.382,16.737-9.367-5.431-5.657-28.686,12.112-45.448,10.83-10.216,24.811-19.625,34.086-25.42,2.11-1.271,5.212-3.135,8.98-5.393,.625-.357,.977-.554,.977-.554l-.014-.023c.728-.435,1.473-.882,2.243-1.342,6.465,23.86,.196,44.864-15.002,61.443Zm105.484-71.71c-5.043,12.294-15.598,43.748-22.022,42.062-5.514-1.447-8.873-25.357-1.101-48.888,3.912-11.844,12.268-25.998,17.177-31.491,7.903-8.841,16.604-11.731,18.718-8.147,2.695,4.566-9.61,38.757-12.772,46.465Zm87.15,41.583c-2.138,1.118-4.099,1.821-5.009,1.279-.668-.399,.882-1.872,.882-1.872,0,0,10.901-11.727,15.195-17.066,2.497-3.106,5.393-6.791,8.549-10.914,.025,.412,.039,.821,.039,1.224-.032,14.05-13.604,23.536-19.656,27.35Zm67.137-15.305c-1.595-1.134-1.33-4.803,3.915-16.229,2.059-4.487,6.757-12.039,14.924-19.256,.946,2.969,1.523,5.815,1.507,8.465-.106,17.678-12.719,24.28-20.346,27.02Z"/></svg>