<?xml version="1.0" encoding="UTF-8"?><svg id="a" xmlns="http://www.w3.org/2000/svg" width="512" height="512" viewBox="0 0 512 512"><defs><style>.b{fill:#231f20;}</style></defs><path class="b" d="M14.994,70.474H127.685v33.144H14.994v-33.144Zm0-61.554H127.685V42.065H14.994V8.921Zm202.18,122.634H14.994v33.144H209.598c21.307,0,71.023,.473,89.489,30.303v-18.466c-8.996-29.356-35.512-44.981-81.914-44.981Zm.473,61.554H14.994v33.144H209.598c47.349,0,77.179,1.894,89.489,8.523v-14.678c-9.47-23.201-49.243-26.989-81.44-26.989Zm-.473,156.251H14.994v-33.144H209.598c21.307,0,71.023-.473,89.489-30.303v18.466c-8.996,29.356-35.512,44.981-81.914,44.981Zm.473-61.554H14.994v-33.144H209.598c47.349,0,77.179-1.894,89.489-8.523v14.678c-9.47,23.201-49.243,26.989-81.44,26.989Zm130.683,118.846h148.675v-20.36h-144.414c-12.784,0-43.087-.473-53.978-17.993v11.364c5.208,17.519,21.307,26.989,49.716,26.989Zm-.473-37.406h148.675v-20.36h-143.941c-28.883,0-46.875-.947-53.978-5.208v8.996c5.682,14.205,29.83,16.572,49.243,16.572Z"/></svg>