<?xml version="1.0" encoding="UTF-8"?><svg id="a" xmlns="http://www.w3.org/2000/svg" width="512" height="512" viewBox="0 0 512 512"><defs><style>.b{fill:#70cff0;}</style></defs><path class="b" d="M491.523,196.6c-5.374-7.309-11.721-13.539-18.899-19.003-20.917-15.922-44.619-26.232-69.49-34.08-3.734-1.178-4.934-2.627-4.075-6.544,5.057-23.076,8.065-46.351,5.884-70.042-1.226-13.315-3.851-26.253-10.562-38.052-6.879-12.094-16.779-19.708-30.871-21.982-13.728-2.216-26.445,1.15-38.873,6.046-24.827,9.779-45.601,25.801-65.218,43.422-2.666,2.395-4.078,2.679-6.839,.193-13.981-12.586-28.755-24.197-45.187-33.455-17.657-9.947-35.902-18.092-57.033-16.068-12.324,1.18-22.155,6.606-29.487,16.487-10.654,14.357-13.573,31.193-14.62,48.367-1.352,22.163,1.59,44.032,6.357,65.646,.74,3.356,.074,4.823-3.2,5.798-11.324,3.374-22.315,7.699-33.038,12.624-19.924,9.151-38.78,19.967-53.036,37.146-12.475,15.033-16.532,31.656-7.793,49.974,4.96,10.397,12.91,18.497,21.808,25.617,21.23,16.987,45.736,27.593,71.409,35.679,4.583,1.443,4.948,3.553,4.107,7.394-5.024,22.927-7.754,46.071-5.709,69.561,1.069,12.282,3.326,24.376,9.219,35.39,7.486,13.99,18.36,23.197,34.971,24.737,12.471,1.156,24.072-1.702,35.42-6.132,25.348-9.895,46.534-26.152,66.586-44.053,2.073-1.85,3.229-2.911,5.93-.424,14.46,13.311,29.932,25.368,47.172,34.919,15.368,8.514,31.38,15.305,41.78,15.484,26.338,.298,39.614-8.201,48.15-24.659,6.089-11.74,8.648-24.395,9.428-37.35,1.402-23.32-.877-46.407-6.231-69.142-.761-3.231-.088-4.426,2.923-5.328,9.558-2.863,18.938-6.245,28.076-10.274,21.145-9.323,41.191-20.295,56.809-37.867,15.823-17.803,18.996-39.81,4.132-60.025Zm-217.918-123.097c19.312-17.502,39.714-33.34,64.733-41.988,6.705-2.318,13.602-3.899,20.973-2.884,9.056,1.247,14.165,6.968,17.538,14.515,5.312,11.884,6.535,24.576,6.267,37.456-.017,.83-.002,1.661-.002,2.491,.516,16.348-2.262,32.337-5.258,48.305-.548,2.919-1.237,4.531-5.083,3.613-18.065-4.311-36.345-7.498-54.842-9.373-3.221-.326-5.582-1.788-7.686-4.642-11.131-15.098-23.075-29.549-35.948-43.22-1.112-1.181-3.126-2.068-.691-4.275Zm-131.955,214.632c3.646-12.198,7.614-24.272,12.844-36.741,8.536,16.507,17.466,31.373,27.142,46.794-13.478-1.573-25.683-4.387-37.922-6.995-1.474-.314-2.729-.837-2.065-3.058Zm-.167-127.666c-.481-1.485-.887-3.058,1.291-3.522,12.541-2.67,25.067-5.432,38.769-7.03-9.847,15.52-18.511,30.715-26.953,46.807-3.794-7.442-5.933-14.853-8.462-22.102-1.635-4.687-3.116-9.428-4.645-14.152Zm25.895,66.801c-.97-2-.918-3.575,.012-5.572,11.736-25.201,25.75-49.089,41.333-72.091,1.632-2.409,3.538-3.581,6.52-3.745,13.62-.746,27.236-1.429,41.234-1.051,13.464-.469,27.241,.452,41.032,1.029,2.747,.115,4.129,1.382,5.531,3.422,15.646,22.77,29.515,46.558,41.5,71.449,1.033,2.145,1.113,3.825,.095,6.02-9.169,19.772-19.918,38.667-31.502,57.104-3.003,4.78-6.238,9.416-9.206,14.218-1.841,2.979-4.385,4.161-7.802,4.386-21.438,1.416-42.899,1.421-64.353,.855-5.622-.148-11.262-.834-16.911-.873-2.595-.018-4.287-1.154-5.734-3.263-15.722-22.921-29.628-46.883-41.75-71.889Zm190.057,23.547c4.737,10.734,8.122,20.731,11.293,30.783,2.88,9.131,2.679,9.174-6.785,10.986-10.062,1.927-20.116,3.894-31.796,6.158,10.06-16.158,19.07-31.191,27.288-47.927Zm12.862-90.514c-3.591,12.085-7.775,23.95-12.686,36.482-8.335-16.271-17.38-31.232-26.971-46.615,5.001-.251,9.113,.967,13.232,1.716,7.994,1.454,15.923,3.266,23.894,4.853,2.094,.417,3.326,.891,2.532,3.564Zm-116.662-67.336c1.082-1.197,1.959-2.1,3.588-.452,9.107,9.212,17.35,19.147,25.193,29.834-17.762-.678-35.276-.944-53.42-.458,4.86-5.953,9.647-11.967,14.607-17.836,3.215-3.805,6.69-7.391,10.032-11.089Zm-120.592-45.12c5.488-16.168,15.795-21.82,32.475-18.054,20.121,4.542,36.969,15.421,53.125,27.52,6.501,4.869,12.488,10.418,18.793,15.555,2.164,1.763,2.216,2.987,.188,5.07-12.996,13.345-24.739,27.767-35.654,42.83-2.321,3.203-4.989,4.626-8.565,4.985-18.508,1.856-36.786,5.074-54.837,9.501-3.118,.764-3.868-.461-4.361-2.879-3.382-16.579-5.753-33.279-6.133-51.033,.485-10.802,1.196-22.38,4.969-33.494Zm-12.197,232.237c-1.056,3.807-2.501,4.539-6.255,3.218-21.383-7.526-42.248-16.041-60.573-29.743-6.557-4.902-12.548-10.365-16.914-17.396-2.307-3.715-4.1-7.596-4.047-12.129,.424-7.335,3.971-13.249,8.768-18.482,12.854-14.02,29.198-22.845,46.232-30.588,8.781-3.992,17.931-7.016,27.042-10.149,2.689-.924,4.103-.769,5.05,2.316,5.703,18.564,12.285,36.813,20.331,54.51,.915,2.012,.564,3.781-.27,5.717-7.417,17.222-14.343,34.636-19.363,52.726Zm117.415,94.686c-19.806,17.671-40.464,34.01-66.242,42.343-4.103,1.326-8.348,1.979-12.696,2.287-15.569,1.102-21.014-6.623-25.151-17.247-4.72-12.12-5.595-24.834-5.162-37.529-.542-16.349,2.307-32.168,5.226-47.983,.631-3.42,1.84-4.426,5.704-3.5,18.229,4.365,36.689,7.56,55.368,9.331,2.201,.209,3.804,1.069,5.041,2.751,11.72,15.926,24.492,30.984,37.86,45.542,1.381,1.504,1.766,2.476,.051,4.006Zm19.529-19.463c-1.53,1.539-2.6,.796-3.729-.409-8.596-9.17-16.944-18.547-24.981-29.122h54.12c-8.293,10.727-16.419,20.49-25.411,29.532Zm119.004,50.265c-5.351,11.253-14.291,15.395-26.64,13.252-17.844-3.097-33.081-11.799-47.748-21.716-9.926-6.711-19.087-14.41-28.035-22.38-2.02-1.799-1.688-2.539-.163-4.189,13.095-14.16,25.755-28.704,36.75-44.569,3.382-4.88,8.405-3.653,12.662-4.203,16.48-2.129,32.817-4.952,48.967-8.786,3.589-.852,4.719,.167,5.427,3.457,3.46,16.09,5.502,32.337,6.016,49.243-.542,13.34-1.167,27.127-7.236,39.891Zm91.9-161.39c-7.614,8.286-17.012,14.319-26.714,19.85-14.209,8.102-29.392,13.971-44.806,19.315-2.862,.992-4.349,.87-5.361-2.49-5.462-18.13-11.945-35.897-19.699-53.189-1.041-2.321-1.396-4.501-.223-7.117,7.821-17.444,14.112-35.466,19.799-53.699,.604-1.938,.949-3.648,3.537-2.752,27.145,9.4,53.873,19.584,74.458,40.868,5.195,5.371,8.875,11.573,9.368,18.551-.4,8.986-5.169,15.016-10.358,20.663Z"/><path class="b" d="M256.002,269.582c24.683,.036,45.656-19.533,45.668-45.623,.013-26.896-22.128-45.984-45.747-45.279-25.34,.006-45.734,20.223-45.795,45.398-.06,24.757,20.87,45.467,45.874,45.504Z"/></svg>