<?xml version="1.0" encoding="utf-8"?>
<!-- Generator: Adobe Illustrator 26.1.0, SVG Export Plug-In . SVG Version: 6.00 Build 0)  -->
<svg version="1.1" id="Layer_1" xmlns="http://www.w3.org/2000/svg" xmlns:xlink="http://www.w3.org/1999/xlink" x="0px" y="0px"
	 width="100px" height="100px" viewBox="0 0 100 100" style="enable-background:new 0 0 100 100;" xml:space="preserve">
<style type="text/css">
	.st0{fill:#2B4970;}
	.st1{fill-rule:evenodd;clip-rule:evenodd;fill:#2B4970;}
	.st2{fill:#FFFFFF;}
	.st3{fill-rule:evenodd;clip-rule:evenodd;fill:#FFFFFF;}
</style>
<g>
	<path class="st1" d="M59.7,50l29.5-29.5c2.7-2.7,2.7-7,0-9.7c-2.7-2.7-7-2.7-9.7,0L50,40.3L20.5,10.7c-2.7-2.7-7-2.7-9.7,0
		c-2.7,2.7-2.7,7,0,9.7L40.3,50L10.7,79.6c-2.7,2.7-2.7,7,0,9.7c1.3,1.3,3.1,2,4.9,2s3.5-0.7,4.9-2L50,59.7l29.5,29.5
		c1.3,1.3,3.1,2,4.9,2s3.5-0.7,4.9-2c2.7-2.7,2.7-7,0-9.7L59.7,50z"/>
</g>
</svg>
