<?xml version="1.0" encoding="utf-8"?>
<!-- Generator: Adobe Illustrator 26.1.0, SVG Export Plug-In . SVG Version: 6.00 Build 0)  -->
<svg version="1.1" id="Layer_1" xmlns="http://www.w3.org/2000/svg" xmlns:xlink="http://www.w3.org/1999/xlink" x="0px" y="0px"
	 width="96px" height="96px" viewBox="0 0 96 96" style="enable-background:new 0 0 96 96;" xml:space="preserve">
<style type="text/css">
	.st0{fill:#FFFFFF;}
</style>
<path class="st0" d="M43.2,8c-2.1,0-4,0.8-5.5,2.3L36,12H16c-2.2,0-4,1.7-4.1,3.9c0,2.2,1.7,4,3.9,4.1c0,0,0.1,0,0.1,0h64
	c2.2,0,4-1.7,4.1-3.9s-1.7-4-3.9-4.1c0,0-0.1,0-0.1,0H60l-1.7-1.7C56.8,8.8,54.8,8,52.8,8H43.2z M17.5,28l6.1,53.1
	c0.5,4,3.9,6.9,7.9,6.9h33c4,0,7.4-3,7.9-7l6.1-53H17.5z"/>
</svg>
