<?xml version="1.0" encoding="utf-8"?>
<!-- Generator: Adobe Illustrator 26.1.0, SVG Export Plug-In . SVG Version: 6.00 Build 0)  -->
<svg version="1.1" id="Layer_1" xmlns="http://www.w3.org/2000/svg" xmlns:xlink="http://www.w3.org/1999/xlink" x="0px" y="0px"
	 width="24px" height="19.7px" viewBox="0 0 24 19.7" style="enable-background:new 0 0 24 19.7;" xml:space="preserve">
<style type="text/css">
	.st0{fill:none;}
</style>
<g>
	<path class="st0" d="M0-1.7h24v24H0V-1.7z"/>
	<path d="M7,19.3c-3.6-0.3-6.3-3.4-6-7c0.2-2.1,1.3-3.9,3-5c0.6-4.4,4.6-7.5,9-6.9c3.6,0.5,6.5,3.3,6.9,6.9c3,1.9,4,5.9,2.1,9
		c-1.1,1.8-3,2.9-5,3v0L7,19.3L7,19.3z M13,10.3v-4h-2v4H8l4,5l4-5H13z"/>
</g>
</svg>
