<?xml version="1.0" encoding="utf-8"?>
<!-- Generator: Adobe Illustrator 26.1.0, SVG Export Plug-In . SVG Version: 6.00 Build 0)  -->
<svg version="1.1" id="Layer_1" xmlns="http://www.w3.org/2000/svg" xmlns:xlink="http://www.w3.org/1999/xlink" x="0px" y="0px"
	 width="100px" height="100px" viewBox="0 0 100 100" style="enable-background:new 0 0 100 100;" xml:space="preserve">
<style type="text/css">
	.st0{fill:#2B4970;}
	.st1{fill-rule:evenodd;clip-rule:evenodd;fill:#2B4970;}
	.st2{fill:#FFFFFF;}
	.st3{fill-rule:evenodd;clip-rule:evenodd;fill:#FFFFFF;}
</style>
<g>
	<path class="st0" d="M78.5,44L38.7,83.8L32.9,78l0.6-0.6h-7.9c-1.5,0-2.7-1.2-2.7-2.7v-7.9l-0.6,0.6c-0.8,0.8-1.4,1.8-1.7,2.9
		l-3.9,13.3L30,79.8c0.9-0.3,2.1-0.9,2.9-1.7l5.8,5.8c-1.8,1.8-4,3.1-6.4,3.8l-20.5,6c-1.4,0.4-3,0-4.1-1.2c-1.1-0.9-1.5-2.5-1-3.9
		l6-20.5c0.7-2.4,2-4.6,3.8-6.4l39.8-39.8L78.5,44z M90.6,16.5c4.3,4.3,4.3,11.2,0,15.5l-8.3,8.3L60.2,18l8.3-8.3
		c4.3-4.3,11.2-4.3,15.5,0L90.6,16.5z"/>
</g>
</svg>
