<?xml version="1.0" encoding="utf-8"?>
<!-- Generator: Adobe Illustrator 26.1.0, SVG Export Plug-In . SVG Version: 6.00 Build 0)  -->
<svg version="1.1" id="Layer_1" xmlns="http://www.w3.org/2000/svg" xmlns:xlink="http://www.w3.org/1999/xlink" x="0px" y="0px"
	 width="100px" height="100px" viewBox="0 0 100 100" style="enable-background:new 0 0 100 100;" xml:space="preserve">
<style type="text/css">
	.st0{fill:#FFFFFF;}
</style>
<path class="st0" d="M86.2,4c-2.5,0-5,1-6.9,2.9l-1.6,1.6l13.8,13.8c0,0,1.6-1.6,1.6-1.6c3.8-3.8,3.8-10,0-13.8
	C91.2,5,88.7,4,86.2,4z M74.7,12.1c-0.5,0.1-0.9,0.3-1.2,0.6L8.6,77.6c-0.3,0.2-0.5,0.5-0.6,0.9l-4,15c-0.2,0.7,0,1.4,0.5,1.9
	s1.2,0.7,1.9,0.5l15-4c0.3-0.1,0.6-0.3,0.9-0.6l64.9-64.9c0.8-0.8,0.8-2,0-2.8c-0.8-0.8-2-0.8-2.8,0L19.9,88.2l-8.1-8.1l64.6-64.6
	c0.6-0.6,0.8-1.5,0.4-2.2c-0.3-0.8-1.1-1.2-1.9-1.2C74.8,12.1,74.8,12.1,74.7,12.1z"/>
</svg>
