<?xml version="1.0" encoding="utf-8"?>
<!-- Generator: Adobe Illustrator 26.1.0, SVG Export Plug-In . SVG Version: 6.00 Build 0)  -->
<svg version="1.1" id="Layer_1" xmlns="http://www.w3.org/2000/svg" xmlns:xlink="http://www.w3.org/1999/xlink" x="0px" y="0px"
	 width="913px" height="1024px" viewBox="0 0 913 1024" style="enable-background:new 0 0 913 1024;" xml:space="preserve">
<path d="M874.4,101.4h-832c-17.7,0-32,14.3-32,32v640c0,17.7,14.3,32,32,32h832c17.7,0,32-14.3,32-32v-640
	C906.4,115.7,892.1,101.4,874.4,101.4z M793.6,210.3L478.1,455.8c-7.8,6.1-18.7,6.1-26.5,0L136,210.3c-3.1-2.4-3.7-7-1.3-10.1
	c1.4-1.8,3.5-2.8,5.7-2.8h648.8c4,0,7.2,3.2,7.2,7.2C796.4,206.8,795.4,208.9,793.6,210.3z"/>
</svg>
