<?xml version="1.0" encoding="utf-8"?>
<!-- Generator: Adobe Illustrator 26.1.0, SVG Export Plug-In . SVG Version: 6.00 Build 0)  -->
<svg version="1.1" id="Layer_1" xmlns="http://www.w3.org/2000/svg" xmlns:xlink="http://www.w3.org/1999/xlink" x="0px" y="0px"
	 width="100px" height="100px" viewBox="0 0 100 100" style="enable-background:new 0 0 100 100;" xml:space="preserve">
<style type="text/css">
	.st0{fill:#2B4970;}
	.st1{fill-rule:evenodd;clip-rule:evenodd;fill:#2B4970;}
	.st2{fill:#FFFFFF;}
	.st3{fill-rule:evenodd;clip-rule:evenodd;fill:#FFFFFF;}
</style>
<g>
	<path class="st0" d="M95.5,14.5H5.9c-1.9,0-3.4,1.5-3.4,3.4v68.9c0,1.9,1.5,3.4,3.4,3.4h89.6c1.9,0,3.4-1.5,3.4-3.4V17.9
		C99,16,97.4,14.5,95.5,14.5z M86.8,26.2l-34,26.4c-0.8,0.7-2,0.7-2.9,0L16,26.2c-0.3-0.3-0.4-0.8-0.1-1.1c0.2-0.2,0.4-0.3,0.6-0.3
		h69.9c0.4,0,0.8,0.3,0.8,0.8C87.1,25.8,87,26.1,86.8,26.2z"/>
</g>
</svg>
