<?xml version="1.0" encoding="utf-8"?>
<!-- Generator: Adobe Illustrator 26.1.0, SVG Export Plug-In . SVG Version: 6.00 Build 0)  -->
<svg version="1.1" id="Layer_1" xmlns="http://www.w3.org/2000/svg" xmlns:xlink="http://www.w3.org/1999/xlink" x="0px" y="0px"
	 width="100px" height="100px" viewBox="0 0 100 100" style="enable-background:new 0 0 100 100;" xml:space="preserve">
<style type="text/css">
	.st0{fill:#2B4970;}
	.st1{fill-rule:evenodd;clip-rule:evenodd;fill:#2B4970;}
	.st2{fill:#FFFFFF;}
	.st3{fill-rule:evenodd;clip-rule:evenodd;fill:#FFFFFF;}
</style>
<g>
	<g>
		<path class="st2" d="M91.1,44.4c3.8,0,6.9,3.1,6.9,6.9s-3.1,6.9-6.9,6.9H8.4c-3.8,0-6.9-3.1-6.9-6.9s3.1-6.9,6.9-6.9H91.1z
			 M91.1,16.8c3.8,0,6.9,3.1,6.9,6.9s-3.1,6.9-6.9,6.9H8.4c-3.8,0-6.9-3.1-6.9-6.9s3.1-6.9,6.9-6.9H91.1z"/>
	</g>
	<g>
		<path class="st2" d="M91.1,71c3.8,0,6.9,3.1,6.9,6.9s-3.1,6.9-6.9,6.9H8.4c-3.8,0-6.9-3.1-6.9-6.9S4.5,71,8.4,71H91.1z"/>
	</g>
</g>
</svg>
