<?xml version="1.0" encoding="utf-8"?>
<!-- Generator: Adobe Illustrator 26.1.0, SVG Export Plug-In . SVG Version: 6.00 Build 0)  -->
<svg version="1.1" id="Layer_1" xmlns="http://www.w3.org/2000/svg" xmlns:xlink="http://www.w3.org/1999/xlink" x="0px" y="0px"
	 width="448px" height="776px" viewBox="0 0 448 776" style="enable-background:new 0 0 448 776;" xml:space="preserve">
<path d="M135.2,281.7c5.4-10.8,16.5-17.7,28.6-17.7h120.4c12.1,0,23.2,6.8,28.6,17.7L320,296h96c17.7,0,32,14.3,32,32
	s-14.3,32-32,32H32c-17.7,0-32-14.3-32-32s14.3-32,32-32h96L135.2,281.7z M31.1,392H416v320c0,35.3-28.7,64-64,64H95.1
	c-34.4,0-64-28.7-64-64V392z M111.1,472v224c0,8.8,8.1,16,16,16c9.7,0,16-7.2,16-16V472c0-8.8-6.3-16-16-16
	C119.2,456,111.1,463.2,111.1,472z M207.1,472v224c0,8.8,8.1,16,16,16c9.7,0,16.9-7.2,16.9-16V472c0-8.8-7.2-16-16.9-16
	C215.2,456,207.1,463.2,207.1,472z M304,472v224c0,8.8,7.2,16,16,16s16-7.2,16-16V472c0-8.8-7.2-16-16-16S304,463.2,304,472z"/>
</svg>
