<?xml version="1.0" encoding="utf-8"?>
<!-- Generator: Adobe Illustrator 26.1.0, SVG Export Plug-In . SVG Version: 6.00 Build 0)  -->
<svg version="1.1" id="Layer_1" xmlns="http://www.w3.org/2000/svg" xmlns:xlink="http://www.w3.org/1999/xlink" x="0px" y="0px"
	 width="100px" height="100px" viewBox="0 0 100 100" style="enable-background:new 0 0 100 100;" xml:space="preserve">
<style type="text/css">
	.st0{fill:#2B4970;}
	.st1{fill-rule:evenodd;clip-rule:evenodd;fill:#2B4970;}
	.st2{fill:#FFFFFF;}
	.st3{fill-rule:evenodd;clip-rule:evenodd;fill:#FFFFFF;}
</style>
<g>
	<path class="st2" d="M35.3,10.1c0.9-1.8,2.8-3,4.8-3h20.2c2,0,3.9,1.1,4.8,3l1.2,2.4h16.1c3,0,5.4,2.4,5.4,5.4s-2.4,5.4-5.4,5.4H18
		c-3,0-5.4-2.4-5.4-5.4s2.4-5.4,5.4-5.4h16.1L35.3,10.1z M17.9,28.6h64.4v53.6c0,5.9-4.8,10.7-10.7,10.7h-43
		c-5.8,0-10.7-4.8-10.7-10.7C17.9,82.1,17.9,28.6,17.9,28.6z M31.3,42v37.5c0,1.5,1.4,2.7,2.7,2.7c1.6,0,2.7-1.2,2.7-2.7V42
		c0-1.5-1.1-2.7-2.7-2.7C32.6,39.3,31.3,40.5,31.3,42z M47.3,42v37.5c0,1.5,1.4,2.7,2.7,2.7c1.6,0,2.8-1.2,2.8-2.7V42
		c0-1.5-1.2-2.7-2.8-2.7C48.7,39.3,47.3,40.5,47.3,42z M63.6,42v37.5c0,1.5,1.2,2.7,2.7,2.7s2.7-1.2,2.7-2.7V42
		c0-1.5-1.2-2.7-2.7-2.7S63.6,40.5,63.6,42z"/>
</g>
</svg>
